<svg xmlns="http://www.w3.org/2000/svg" version="1.1" xmlnsXlink="http://www.w3.org/1999/xlink" xmlnsSvgjs="http://svgjs.dev/svgjs" width="100%" height="100%" viewBox="0 0 1000 600"><rect width="1000" height="600" x="0" y="0" fill="#0bae2d"/><g><rect width="333.3333333333333" height="333.3333333333333" rx="13.333333333333334" ry="13.333333333333334" y="279.3810220323419" fill="#fe4a49" transform="matrix(0.4860809365256192,0,0,0.4860809365256192,-1.5279191993784942,83.18471001758338)" x="263.27529907226557"/><path d="M262.19066327400736 380.46082696430705L260.30222635781655 371.2510653884226L285.40391090533757 371.8902286523641L317.4201798536803 371.04769525898666Q340.4300573555745 371.04769525898666 355.07270667496175 380.8966200988126Q369.71535599434895 390.7164920630048 369.71535599434895 410.9953992553308L369.71535599434895 410.9953992553308Q369.71535599434895 440.91986115804684 339.3841538327611 451.37889638618054L339.3841538327611 451.37889638618054Q343.77113805345056 457.2475772641889 353.18426975877094 470.2051597968213L353.18426975877094 470.2051597968213Q373.4631769510969 499.0837181767239 380.6973429838894 505.765879572476Q387.90245614104816 512.4480409682282 397.3155878463686 513.2905743616055L397.3155878463686 513.2905743616055L400.0465581559368 520.6118990212992L384.56137544317215 520.0017886329914L363.64330498690464 520.4085288918633Q359.6630610250871 514.9756411483604 342.60902302810234 489.031423207462Q325.5549850311176 463.0872052665636 319.715357028743 455.9692507363059L319.715357028743 455.9692507363059Q318.87282363536553 455.15577021856217 317.4201798536803 455.15577021856217L317.4201798536803 455.15577021856217L297.3155899151565 455.15577021856217L297.3155899151565 503.6740725268493Q297.3155899151565 507.8576866181028 301.09246374753815 509.4265419023228Q304.8693375799198 510.99539718654285 315.53174293748947 511.83793057992034L315.53174293748947 511.83793057992034L317.4201798536803 521.0476921558047Q290.43005838996845 520.4085288918633 289.79089512602695 520.4085288918633L289.79089512602695 520.4085288918633L263.0331966673848 521.0476921558047L261.3481298806299 511.83793057992034Q273.056438761013 510.588656927671 275.6711975680464 509.4265419023228Q278.2859563750799 508.26442687697465 278.2859563750799 503.6740725268493L278.2859563750799 503.6740725268493L278.2859563750799 388.6246850173781Q278.2859563750799 384.4410709261246 275.26445730917453 382.8722156419045Q272.21390536763556 381.3033603576845 262.19066327400736 380.46082696430705L262.19066327400736 380.46082696430705ZM297.3155899151565 384.4410709261246L297.3155899151565 384.4410709261246L297.3155899151565 445.1034752493003Q302.1383672703515 445.7426385132418 311.1447587168 445.7426385132418L311.1447587168 445.7426385132418Q349.8431890608949 445.7426385132418 349.8431890608949 411.22782226040044L349.8431890608949 411.22782226040044Q349.8431890608949 396.1493798065077 339.99426422106893 388.5084735148433Q330.17439225687673 380.8966200988126 314.4858394146761 380.8966200988126L314.4858394146761 380.8966200988126Q300.8890936181022 380.8966200988126 299.11686820444623 382.0296822485271Q297.3155899151565 383.1917972738753 297.3155899151565 384.4410709261246ZM408.18136333337424 380.2574568348711L406.32197929281705 371.2510653884226L432.0337742286459 371.8902286523641Q443.335342850157 371.8902286523641 447.31558681197464 371.2510653884226L447.31558681197464 371.2510653884226Q449.40739385760133 377.119746266431 461.63865449939107 402.6281710728238Q473.8699151411808 428.1656487548504 476.0779336893424 433.4823249958184Q478.2568993618703 438.8280541124201 489.76183811281743 460.7920280915009Q501.2667768637645 482.75600207058176 505.04365069614613 488.39225994352057L505.04365069614613 488.39225994352057Q506.93208761233694 484.8478091162085 517.9140746018775 459.74612456868755Q528.896061591418 434.6444400211666 530.5520755025391 430.664196059349L530.5520755025391 430.664196059349Q536.0140161216755 420.0017907017793 546.5602099767104 397.1081247024199Q557.135456707379 374.1854058274268 557.135456707379 371.4834883934923L557.135456707379 371.4834883934923Q561.1157006691965 371.8902286523641 566.86817004467 371.8902286523641Q572.6206394201436 371.8902286523641 597.7223239676646 371.2510653884226L597.7223239676646 371.2510653884226L599.5817080082218 380.05408670543517Q579.7095410747677 381.3033603576845 579.7095410747677 390.309751804133L579.7095410747677 390.309751804133L579.7095410747677 503.6740725268493Q579.7095410747677 508.0610567475387 582.9634631457425 509.54275340485765Q586.2173852167175 510.99539718654285 597.7223239676646 511.83793057992034L597.7223239676646 511.83793057992034L599.5817080082218 521.0476921558047Q572.6206394201436 520.4085288918633 568.6403954583261 520.4085288918633L568.6403954583261 520.4085288918633L544.9913546924904 521.0476921558047L543.3353407813693 511.83793057992034Q555.2470197911882 510.588656927671 557.9779901007564 509.310330399788Q560.679907534691 508.0610567475387 560.679907534691 503.6740725268493L560.679907534691 503.6740725268493L560.679907534691 393.65083250200905L500.8600366048926 520.4085288918633L497.92569616588844 521.0476921558047L436.8565515838408 394.49336589538643L436.8565515838408 502.221428745164Q436.8565515838408 506.8117830952894 440.3138437842518 508.90359014091615Q443.7420831090289 510.99539718654285 454.8402816011042 511.83793057992034L454.8402816011042 511.83793057992034L456.72871851729496 521.0476921558047L432.2371443580818 520.4085288918633L408.61715646787974 521.0476921558047L406.93208968112486 511.83793057992034Q418.0302881732002 510.588656927671 421.16799874164025 508.7873786383813Q424.3057093100804 507.0151532247253 424.3057093100804 502.221428745164L424.3057093100804 502.221428745164L424.3057093100804 388.4213148879422Q424.3057093100804 384.23770079668867 421.2551573685414 382.6688455124686Q418.2336583026361 381.09999022824854 408.18136333337424 380.2574568348711L408.18136333337424 380.2574568348711Z " fill="#e5ece9" transform="matrix(0.4860809365256192,0,0,0.4860809365256192,-1.5279191993784942,83.18471001758338)"/><path d="M681.2631045797117 383.91354882880967L679.941966422961 377.47045966434825L697.5029413065404 377.9176141174023L719.9013143640688 377.3281832474674Q735.9988746740165 377.3281832474674 746.2427766894377 384.2184268649829Q756.4866787048591 391.08834528008686 756.4866787048591 405.2753365633489L756.4866787048591 405.2753365633489Q756.4866787048591 426.2102950472456 735.2671673872006 433.5273679154037L735.2671673872006 433.5273679154037Q738.3362729513448 437.6330588025368 744.921638532687 446.6980990780882L744.921638532687 446.6980990780882Q759.108629815949 466.9013502751691 764.1696052164251 471.5761468298257Q769.2102554144896 476.2509433844822 775.7956209958318 476.84037425441716L775.7956209958318 476.84037425441716L777.7061900225175 481.9623252621278L766.8728571371612 481.53549601148524L752.2387114008451 481.82004884524696Q749.4541586704627 478.0192359942871 737.5232648548828 459.86883024077275Q725.5923710393027 441.7184244872584 721.5070053545811 436.7387498964286L721.5070053545811 436.7387498964286Q720.9175744846463 436.1696442289052 719.9013143640688 436.1696442289052L719.9013143640688 436.1696442289052L705.836274295276 436.1696442289052L705.836274295276 470.112732256194Q705.836274295276 473.03956140345724 708.4785506087775 474.13712233368096Q711.120826922279 475.2346832639047 718.580176207318 475.82411413383966L718.580176207318 475.82411413383966L719.9013143640688 482.26720329830107Q701.0192013237386 481.82004884524696 700.5720468706844 481.82004884524696L700.5720468706844 481.82004884524696L681.8525354496468 482.26720329830107L680.6736737097768 475.82411413383966Q688.8647302816315 474.95013043014296 690.693998498671 474.13712233368096Q692.5232667157105 473.32411423721896 692.5232667157105 470.112732256194L692.5232667157105 470.112732256194L692.5232667157105 389.62493070645525Q692.5232667157105 386.698101559192 690.4094456649094 385.6005406289683Q688.2752994116967 384.5029796987446 681.2631045797117 383.91354882880967L681.2631045797117 383.91354882880967ZM705.836274295276 386.698101559192L705.836274295276 386.698101559192L705.836274295276 429.13712419450883Q709.2102578955934 429.58427864756294 715.5110706431739 429.58427864756294L715.5110706431739 429.58427864756294Q742.5842402553587 429.58427864756294 742.5842402553587 405.4379381826413L742.5842402553587 405.4379381826413Q742.5842402553587 394.88915813104677 735.6939966378433 389.5436298968091Q728.8240782227392 384.2184268649829 717.8484689205021 384.2184268649829L717.8484689205021 384.2184268649829Q708.3362741918967 384.2184268649829 707.096436844792 385.0111097590334Q705.836274295276 385.8241178554954 705.836274295276 386.698101559192ZM807.7061887819656 475.37695968078555L807.7061887819656 475.37695968078555Q815.1655380670045 475.37695968078555 818.8240745010835 470.39728508995574L818.8240745010835 470.39728508995574L818.8240745010835 454.01517194624626Q806.2427742083339 456.2102938066937 801.99480690432 458.9135457274299Q797.746839600306 461.6167976481661 797.746839600306 466.59647223899583L797.746839600306 466.59647223899583Q798.0313924340677 471.1289923767715 800.81594516445 473.2631386299843Q803.6004978948324 475.37695968078555 807.7061887819656 475.37695968078555ZM837.4013095052404 474.5029759770889L837.4013095052404 474.5029759770889L840.4704150693844 474.5029759770889Q841.2021223562003 474.5029759770889 841.5070003923736 474.36069956020805L841.5070003923736 474.36069956020805Q842.0964312623086 478.1615124111679 842.5232605129511 479.0354961148646L842.5232605129511 479.0354961148646Q840.7752931055578 479.90947981856124 834.5557811676234 481.7387480356008Q828.336269229689 483.5680162526403 825.4094400824258 483.5680162526403Q822.4826109351626 483.5680162526403 821.3037491952927 481.45419520183907Q820.1452126578342 479.34037415103785 819.5557817878994 473.91354510715394L819.5557817878994 473.91354510715394Q817.0557818912787 477.42980512435213 812.157408110095 480.35663427161535Q807.2590343289114 483.28346341887857 802.2793597380817 483.5680162526403L802.2793597380817 483.5680162526403L801.5476524512659 483.5680162526403Q794.535457619281 483.5680162526403 789.4744822188051 479.6249269847996Q784.4338320207406 475.6818377169588 784.4338320207406 468.2021632295083Q784.4338320207406 460.7428139444694 791.3850512454908 456.71842386698245Q798.336270470241 452.6940337894955 818.8240745010835 448.89322093853565L818.8240745010835 448.89322093853565L818.8240745010835 440.11273349674593Q818.8240745010835 424.2997260205599 806.9744814951498 424.2997260205599L806.9744814951498 424.2997260205599Q802.8687906080166 424.2997260205599 799.2102541739376 426.35257146412647L799.2102541739376 426.35257146412647L799.2102541739376 436.3119206457861Q799.2102541739376 437.04362793260185 795.3281405133315 437.7753352194177Q791.4460268527254 438.50704250623346 790.2061895056208 438.50704250623346Q788.9663521585163 438.50704250623346 787.7874904186464 438.2021644700602L787.7874904186464 438.2021644700602Q786.628953881188 437.04362793260185 786.628953881188 432.93793704546874Q786.628953881188 428.85257136074716 788.9663521585163 426.2102950472456L788.9663521585163 426.2102950472456Q791.1614740189638 423.2834658999824 799.4948070076993 420.2143603358383Q807.8484651988465 417.1452547716942 812.523261753503 417.1452547716942L812.523261753503 417.1452547716942Q830.958220340779 417.1452547716942 830.958220340779 437.91761163629855L830.958220340779 437.91761163629855L830.958220340779 467.1859031089308Q830.958220340779 471.86069966358735 832.7874885578185 473.1818378203381Q834.616756774858 474.5029759770889 837.4013095052404 474.5029759770889ZM880.8769174635463 482.26720329830107L866.5273245609918 481.82004884524696L850.7143170848058 482.26720329830107L849.5557805473475 476.41354500377463Q856.5679753793322 475.82411413383966 857.9704143457292 475.15338245425846Q859.3525281097146 474.5029759770889 859.3525281097146 471.4338704129448L859.3525281097146 471.4338704129448L859.3525281097146 434.2590752022195Q859.3525281097146 426.94200233406144 852.0354552415565 426.94200233406144L852.0354552415565 426.94200233406144Q850.2874878341632 426.94200233406144 849.2509025111742 427.08427875094225L849.2509025111742 427.08427875094225L847.9500895568349 422.8363114469283Q857.4622842854404 420.4989131696 860.0842353965304 419.4826530490225L860.0842353965304 419.4826530490225L869.006999255201 415.9663930318243Q870.9175682818867 415.9663930318243 871.3647227349408 416.3322466752322Q871.7915519855833 416.6981003186401 871.7915519855833 418.3037913091526L871.7915519855833 418.3037913091526L871.7915519855833 471.4338704129448Q871.7915519855833 474.0558215240348 873.1126901423341 475.01110603737766Q874.4338282990849 475.9663905507205 879.5557793067956 476.41354500377463L879.5557793067956 476.41354500377463L880.8769174635463 482.26720329830107ZM865.6533408572952 398.6899709820067Q861.9948044232162 398.6899709820067 859.5761053362417 396.43387351432455Q857.1574062492672 394.15745084423094 857.1574062492672 390.4989144101519Q857.1574062492672 386.8403779760729 859.6574061458879 384.2184268649829Q862.137080840097 381.57615055148136 865.8769180838223 381.57615055148136Q869.596430125136 381.57615055148136 872.0151292121104 383.7712724119288Q874.4338282990849 385.9663942723762 874.4338282990849 389.70623151610147Q874.4338282990849 393.4257435574151 871.8728527952296 396.06801987091666Q869.3118772913742 398.6899709820067 865.6533408572952 398.6899709820067ZM894.1899250431117 427.8159860377581L894.1899250431117 427.8159860377581L891.9948031826642 427.95826245463894L890.6736650259136 423.7306203530365Q900.9175670413348 421.2306204564158 905.7549652152837 418.7509457622067Q910.5720381868211 416.250945865586 911.1614690567561 415.9663930318243L911.1614690567561 415.9663930318243Q913.0720380834418 415.9663930318243 913.3565909172036 416.250945865586L913.3565909172036 416.250945865586Q913.9460217871385 416.840376735521 914.2305746209001 425.62086417731064L914.2305746209001 425.62086417731064Q921.2630946552965 421.37289687329667 926.6086228895342 419.25907582249545Q931.9338259213604 417.1452547716942 938.234638668941 417.1452547716942L938.234638668941 417.1452547716942Q958.5801662829027 417.1452547716942 958.5801662829027 438.93387175687604L958.5801662829027 438.93387175687604L958.5801662829027 471.4338704129448Q958.5801662829027 474.0558215240348 959.9013044396535 475.01110603737766Q961.2021173939927 475.9663905507205 966.3240684017034 476.41354500377463L966.3240684017034 476.41354500377463L967.6452065584541 482.26720329830107L953.3159388583113 481.82004884524696L937.5029313821251 482.26720329830107L936.3240696422553 476.41354500377463Q943.3565896766515 475.82411413383966 944.738703440637 475.15338245425846Q946.1411424070341 474.5029759770889 946.1411424070341 471.4338704129448L946.1411424070341 471.4338704129448L946.1411424070341 443.91354634770585Q946.1411424070341 434.5436280359812 942.4826059729551 430.88509160190216Q938.824069538876 427.2265551678231 930.9175658007829 427.2265551678231Q923.0110620626899 427.2265551678231 914.5354526570734 431.3322460549563L914.5354526570734 431.3322460549563L914.5354526570734 471.4338704129448Q914.5354526570734 474.0558215240348 915.8362656114126 475.01110603737766Q917.1574037681635 475.9663905507205 922.279354775874 476.41354500377463L922.279354775874 476.41354500377463L923.6004929326248 482.26720329830107L909.2509000300704 481.82004884524696L893.4582177562959 482.26720329830107L892.2793560164259 476.41354500377463Q899.3118760508223 475.82411413383966 900.6939898148078 475.15338245425846Q902.0964287812046 474.5029759770889 902.0964287812046 471.4338704129448L902.0964287812046 471.4338704129448L902.0964287812046 437.1859043494827Q902.0964287812046 431.92167692489124 900.185859754519 429.86883148132466Q898.2752907278333 427.8159860377581 894.1899250431117 427.8159860377581ZM995.165530623693 431.04769322119455L995.165530623693 463.5273666748518Q995.165530623693 469.9704558393132 999.6167499518226 473.54769146374605Q1004.0882944823636 477.1452522905904 1012.6452046976262 477.1452522905904Q1021.2021149128889 477.1452522905904 1025.3891066096685 470.112732256194Q1029.5557731040362 463.0802122217977 1029.5557731040362 451.454196442391Q1029.5557731040362 439.82818066298427 1024.1289440601522 432.51110779482616Q1018.7224402186798 425.1940349266681 1010.4500828371788 425.1940349266681Q1002.1777254556778 425.1940349266681 995.165530623693 431.04769322119455L995.165530623693 431.04769322119455ZM982.7265067478243 457.0842775103904L982.7265067478243 457.0842775103904L982.7265067478243 392.2672070199568Q982.7265067478243 386.55582514231116 980.389108470496 384.72655692527167Q978.0313849907562 382.89728870823217 975.6939867134279 382.89728870823217Q973.3565884360997 382.89728870823217 972.3403283155222 383.039565125113L972.3403283155222 383.039565125113L971.1614665756523 378.64932140421814Q975.4094338796663 377.63306128364064 982.421628711651 375.0720857797853Q989.4541487460474 372.51111027593 991.6492706064948 371.04769570229837L991.6492706064948 371.04769570229837Q994.2915469199963 371.04769570229837 994.2915469199963 372.20623223975673L994.2915469199963 372.20623223975673L994.4338233368773 426.49484788100733Q997.0557744479672 422.8363114469283 1002.6248799087319 419.9907831093112Q1008.1939853694968 417.1452547716942 1015.0639037846007 417.1452547716942L1015.0639037846007 417.1452547716942Q1027.6452040773502 417.1452547716942 1035.2671549816819 425.70216498695686Q1042.8687806836015 434.2590752022195 1042.8687806836015 449.1167981650627Q1042.8687806836015 463.97452112790586 1034.535447694866 473.7712686902731Q1026.1817895037188 483.5680162526403 1011.12081451676 483.5680162526403L1011.12081451676 483.5680162526403Q999.8403271783496 483.5680162526403 991.9338234402566 479.1777725317454L991.9338234402566 479.1777725317454L986.6695960156651 483.1411870019977Q985.9378887288493 483.5680162526403 985.5110594782068 483.5680162526403L985.5110594782068 483.5680162526403Q984.9216286082718 483.5680162526403 983.0110595815861 483.1411870019977L983.0110595815861 483.1411870019977Q982.2793522947702 482.83630896582446 982.5029295212973 481.7387480356008Q982.7265067478243 480.64118710537707 982.7265067478243 457.0842775103904ZM1067.2996739822847 448.3850908782469Q1067.2996739822847 459.86883024077275 1072.950080252696 468.4257404560354Q1078.580161320695 476.982650671298 1088.153331656535 476.982650671298Q1097.7468271947869 476.982650671298 1102.360648142209 470.39728508995574Q1106.974469089631 463.81191950861347 1106.974469089631 451.90135089544503Q1106.974469089631 439.97045707986507 1100.8972335685771 431.616798888718Q1094.8199980475238 423.2834658999824 1085.4500797357991 423.2834658999824Q1076.0801614240745 423.2834658999824 1071.6899177031796 430.0924087078517Q1067.2996739822847 436.901351515721 1067.2996739822847 448.3850908782469ZM1086.7712178925499 483.5680162526403Q1072.4216249899955 483.5680162526403 1063.214308297563 474.72655320361594Q1053.9866664027195 465.86476495218005 1053.9866664027195 451.454196442391Q1053.9866664027195 437.04362793260185 1063.4378855240902 427.08427875094225Q1072.8687794430498 417.1452547716942 1087.2793479528386 417.1452547716942Q1101.689916462628 417.1452547716942 1110.9988591671176 426.1289942375994Q1120.2874766691962 435.13305890591613 1120.2874766691962 449.54362741570526Q1120.2874766691962 463.97452112790586 1110.6939811309444 473.7712686902731Q1101.1208107951043 483.5680162526403 1086.7712178925499 483.5680162526403ZM1210.7143021981828 418.44606772603345L1223.600480527106 418.89322217908756L1233.7021061256464 418.44606772603345L1234.8606426631045 423.87289676991736L1234.2915369955813 423.87289676991736Q1230.0435696915674 424.2997260205599 1228.4378787010546 425.9867178207186Q1226.811862508131 427.6737096208772 1224.6167406476834 432.51110779482616L1224.6167406476834 432.51110779482616L1202.0964163756857 481.82004884524696L1196.0801564618669 481.82004884524696L1178.5191815782873 443.03956264400915L1160.8159302778272 481.82004884524696L1154.81999556642 481.82004884524696L1133.0110533788265 433.5273679154037Q1130.226500648444 427.38915678711555 1128.254956014524 425.559888570076Q1126.2834113806034 423.7306203530365 1121.750891242828 423.7306203530365L1121.750891242828 423.7306203530365L1120.4297530860772 418.3037913091526Q1128.0313787879968 418.89322217908756 1136.6695898129055 418.89322217908756Q1145.3078008378143 418.89322217908756 1152.9094265397343 418.3037913091526L1152.9094265397343 418.3037913091526L1154.088288279604 423.5680187337441L1153.4988574096692 423.5680187337441Q1143.702109847302 423.7306203530365 1143.702109847302 427.08427875094225L1143.702109847302 427.08427875094225Q1143.702109847302 428.40541690769305 1144.5760935509988 430.1533843150863L1144.5760935509988 430.1533843150863L1160.2264994078923 467.4704559426925L1175.023246763501 435.275335322797Q1171.5069867463026 426.94200233406144 1169.9622713630247 425.33631134354897Q1168.4378811821584 423.7306203530365 1163.8850358419713 423.7306203530365L1163.8850358419713 423.7306203530365L1162.5842228876322 418.3037913091526Q1170.1858485895518 418.89322217908756 1178.3159295541718 418.89322217908756Q1186.4256853163806 418.89322217908756 1194.0476362207119 418.3037913091526L1194.0476362207119 418.3037913091526L1195.2061727581704 423.5680187337441L1194.616741888235 423.5680187337441Q1184.8199943258683 423.7306203530365 1184.8199943258683 427.08427875094225L1184.8199943258683 427.08427875094225Q1184.8199943258683 427.8159860377581 1185.6939780295647 430.1533843150863L1185.6939780295647 430.1533843150863L1201.3647090888699 467.4704559426925L1218.7630823531567 429.86883148132466Q1219.6573912592653 427.8159860377581 1219.6573912592653 427.08427875094225L1219.6573912592653 427.08427875094225Q1219.6573912592653 424.157449603679 1212.0354403549336 424.01517318679817L1212.0354403549336 424.01517318679817L1210.7143021981828 418.44606772603345ZM1269.9825924302636 383.7712724119288L1268.681779475924 377.47045966434825L1286.6695836101462 377.9176141174023Q1294.576087348239 377.9176141174023 1297.3606400786216 377.47045966434825L1297.3606400786216 377.47045966434825Q1298.8240546522534 381.57615055148136 1307.380964867516 399.42167826882246Q1315.9378750827786 417.2875311885751 1317.482590466056 421.0070432298888Q1319.0069806469228 424.746880473614 1327.0557608018967 440.11273349674593Q1335.1045409568706 455.4785865198779 1337.746817270372 459.42167578771864L1337.746817270372 459.42167578771864Q1339.0679554271228 456.94200109350953 1346.7508819386885 439.38102620993016Q1354.4338084502547 421.8200513263508 1355.5923449877127 419.0354985959684L1355.5923449877127 419.0354985959684Q1359.4134830410844 411.57614931092945 1366.7915315164769 395.5598898106279Q1374.1899051942814 379.5233051079148 1374.1899051942814 377.63306128364064L1374.1899051942814 377.63306128364064Q1376.974457924664 377.9176141174023 1380.9988480021507 377.9176141174023Q1385.0232380796378 377.9176141174023 1402.584212963217 377.47045966434825L1402.584212963217 377.47045966434825L1403.885025917556 383.62899599504794Q1389.982587468056 384.5029796987446 1389.982587468056 390.80379244632513L1389.982587468056 390.80379244632513L1389.982587468056 470.112732256194Q1389.982587468056 473.1818378203381 1392.2590101381497 474.2184231433272Q1394.535432808243 475.2346832639047 1402.584212963217 475.82411413383966L1402.584212963217 475.82411413383966L1403.885025917556 482.26720329830107Q1385.0232380796378 481.82004884524696 1382.2386853492553 481.82004884524696L1382.2386853492553 481.82004884524696L1365.6939705862533 482.26720329830107L1364.5354340487952 475.82411413383966Q1372.8687670375307 474.95013043014296 1374.7793360642163 474.0558215240348Q1376.6695798884907 473.1818378203381 1376.6695798884907 470.112732256194L1376.6695798884907 470.112732256194L1376.6695798884907 393.14119072365344L1334.8199881231085 481.82004884524696L1332.7671426795423 482.26720329830107L1290.0435672104636 393.73062159358835L1290.0435672104636 469.0964721356165Q1290.0435672104636 472.30785411664147 1292.462266297438 473.7712686902731Q1294.8606401820011 475.2346832639047 1302.624867503213 475.82411413383966L1302.624867503213 475.82411413383966L1303.9460056599642 482.26720329830107L1286.8118600270268 481.82004884524696L1270.2874704664368 482.26720329830107L1269.1086087265667 475.82411413383966Q1276.872836047779 474.95013043014296 1279.0679579082262 473.6899678806269Q1281.2630797686738 472.4501305335223 1281.2630797686738 469.0964721356165L1281.2630797686738 469.0964721356165L1281.2630797686738 389.4826542895744Q1281.2630797686738 386.55582514231116 1279.128933515461 385.45826421208744Q1277.01511246466 384.3607032818637 1269.9825924302636 383.7712724119288L1269.9825924302636 383.7712724119288ZM1427.1573826787812 448.3850908782469Q1427.1573826787812 459.86883024077275 1432.7874637467808 468.4257404560354Q1438.4378700171915 476.982650671298 1448.0110403530316 476.982650671298Q1457.6045358912834 476.982650671298 1462.2183568387054 470.39728508995574Q1466.8118525837158 463.81191950861347 1466.8118525837158 451.90135089544503Q1466.8118525837158 439.97045707986507 1460.7549422650736 431.616798888718Q1454.6777067440203 423.2834658999824 1445.3077884322956 423.2834658999824Q1435.937870120571 423.2834658999824 1431.5476263996761 430.0924087078517Q1427.1573826787812 436.901351515721 1427.1573826787812 448.3850908782469ZM1446.6289265890464 483.5680162526403Q1432.279333686492 483.5680162526403 1423.0720169940596 474.72655320361594Q1413.844375099216 465.86476495218005 1413.844375099216 451.454196442391Q1413.844375099216 437.04362793260185 1423.275269018175 427.08427875094225Q1432.7264881395458 417.1452547716942 1447.1370566493351 417.1452547716942Q1461.547625159124 417.1452547716942 1470.8362426612025 426.1289942375994Q1480.1451853656927 435.13305890591613 1480.1451853656927 449.54362741570526Q1480.1451853656927 463.97452112790586 1470.551689827441 473.7712686902731Q1460.9581942891891 483.5680162526403 1446.6289265890464 483.5680162526403ZM1493.600469362139 427.8159860377581L1493.600469362139 427.8159860377581L1491.4053475016913 427.95826245463894L1490.0842093449405 423.7306203530365Q1500.328111360362 421.2306204564158 1505.1655095343108 418.7509457622067Q1509.9825825058483 416.250945865586 1510.5720133757832 415.9663930318243L1510.5720133757832 415.9663930318243Q1512.4825824024688 415.9663930318243 1512.9094116531114 416.250945865586L1512.9094116531114 416.250945865586Q1513.072013272404 416.55582390175925 1513.8037205592195 427.38915678711555L1513.8037205592195 427.38915678711555Q1522.421606381717 417.1452547716942 1530.9175409897448 417.1452547716942Q1539.413475597773 417.1452547716942 1541.1614430051663 420.4989131696L1541.1614430051663 420.4989131696Q1541.1614430051663 423.7306203530365 1536.0394919974556 430.3159859343788L1536.0394919974556 430.3159859343788Q1534.4338010069432 432.51110779482616 1534.12892297077 432.51110779482616L1534.12892297077 432.51110779482616L1522.421606381717 428.2631404908122L1521.5476226780206 428.2631404908122Q1518.3362406969954 428.2631404908122 1516.1411188365478 431.47452247183713Q1513.9459969761006 434.7062296552736 1513.9459969761006 440.55988794980004L1513.9459969761006 440.55988794980004L1513.9459969761006 471.4338704129448Q1513.9459969761006 474.0558215240348 1516.1411188365478 475.2346832639047Q1518.3362406969954 476.41354500377463 1525.2061591120992 476.41354500377463L1525.2061591120992 476.41354500377463L1526.52729726885 482.26720329830107L1509.5557532552057 481.82004884524696L1492.868762075323 482.26720329830107L1491.6899003354533 476.41354500377463Q1498.7224203698493 475.82411413383966 1500.104534133835 475.15338245425846Q1501.5069731002318 474.5029759770889 1501.5069731002318 471.4338704129448L1501.5069731002318 471.4338704129448L1501.5069731002318 437.1859043494827Q1501.5069731002318 431.92167692489124 1499.5964040735462 429.86883148132466Q1497.7061602492718 427.8159860377581 1493.600469362139 427.8159860377581ZM1578.4785146327727 482.26720329830107L1564.1289217302178 481.82004884524696L1548.3362394564433 482.26720329830107L1547.1573777165736 476.41354500377463Q1554.18989775097 475.82411413383966 1555.5720115149552 475.15338245425846Q1556.9744504813525 474.5029759770889 1556.9744504813525 471.4338704129448L1556.9744504813525 471.4338704129448L1556.9744504813525 434.2590752022195Q1556.9744504813525 426.94200233406144 1549.657377613194 426.94200233406144L1549.657377613194 426.94200233406144Q1547.8890850033895 426.94200233406144 1546.872824882812 427.08427875094225L1546.872824882812 427.08427875094225L1545.5516867260612 422.8363114469283Q1555.0638814546664 420.4989131696 1557.706157768168 419.4826530490225L1557.706157768168 419.4826530490225L1566.6289216268387 415.9663930318243Q1568.5191654511127 415.9663930318243 1568.966319904167 416.3322466752322Q1569.4134743572208 416.6981003186401 1569.4134743572208 418.3037913091526L1569.4134743572208 418.3037913091526L1569.4134743572208 471.4338704129448Q1569.4134743572208 474.0558215240348 1570.7142873115604 475.01110603737766Q1572.0354254683111 475.9663905507205 1577.1573764760215 476.41354500377463L1577.1573764760215 476.41354500377463L1578.4785146327727 482.26720329830107ZM1563.2549380265214 398.6899709820067Q1559.5964015924424 398.6899709820067 1557.177702505468 396.43387351432455Q1554.7793286209048 394.15745084423094 1554.7793286209048 390.4989144101519Q1554.7793286209048 386.8403779760729 1557.2590033151141 384.2184268649829Q1559.738678009323 381.57615055148136 1563.4785152530485 381.57615055148136Q1567.2183524967736 381.57615055148136 1569.6167263813363 383.7712724119288Q1572.0354254683111 385.9663942723762 1572.0354254683111 389.70623151610147Q1572.0354254683111 393.4257435574151 1569.4744499644557 396.06801987091666Q1566.9134744606004 398.6899709820067 1563.2549380265214 398.6899709820067ZM1591.791522212338 427.8159860377581L1591.791522212338 427.8159860377581L1589.5964003518902 427.95826245463894L1588.2752621951395 423.7306203530365Q1598.519164210561 421.2306204564158 1603.3565623845097 418.7509457622067Q1608.193960558459 416.250945865586 1608.7630662259821 415.9663930318243L1608.7630662259821 415.9663930318243Q1610.6736352526677 415.9663930318243 1610.9581880864298 416.250945865586L1610.9581880864298 416.250945865586Q1611.5476189563647 416.840376735521 1611.852496992538 425.62086417731064L1611.852496992538 425.62086417731064Q1618.8646918245227 421.37289687329667 1624.2102200587606 419.25907582249545Q1629.555748292998 417.1452547716942 1635.8362358381673 417.1452547716942L1635.8362358381673 417.1452547716942Q1656.181763452129 417.1452547716942 1656.181763452129 438.93387175687604L1656.181763452129 438.93387175687604L1656.181763452129 471.4338704129448Q1656.181763452129 474.0558215240348 1657.5029016088797 475.01110603737766Q1658.8240397656305 475.9663905507205 1663.9459907733412 476.41354500377463L1663.9459907733412 476.41354500377463L1665.267128930092 482.26720329830107L1650.9175360275376 481.82004884524696L1635.1045285513515 482.26720329830107L1633.945992013893 476.41354500377463Q1640.9581868458777 475.82411413383966 1642.3606258122745 475.15338245425846Q1643.7427395762602 474.5029759770889 1643.7427395762602 471.4338704129448L1643.7427395762602 471.4338704129448L1643.7427395762602 443.91354634770585Q1643.7427395762602 434.5436280359812 1640.0842031421812 430.88509160190216Q1636.4256667081022 427.2265551678231 1628.519162970009 427.2265551678231Q1620.6329844343277 427.2265551678231 1612.1370498262995 431.3322460549563L1612.1370498262995 431.3322460549563L1612.1370498262995 471.4338704129448Q1612.1370498262995 474.0558215240348 1613.4581879830503 475.01110603737766Q1614.779326139801 475.9663905507205 1619.9012771475118 476.41354500377463L1619.9012771475118 476.41354500377463L1621.202090101851 482.26720329830107L1606.8728224017082 481.82004884524696L1591.059814925522 482.26720329830107L1589.901278388064 476.41354500377463Q1596.9134732200487 475.82411413383966 1598.3159121864455 475.15338245425846Q1599.6980259504307 474.5029759770889 1599.6980259504307 471.4338704129448L1599.6980259504307 471.4338704129448L1599.6980259504307 437.1859043494827Q1599.6980259504307 431.92167692489124 1597.7874569237451 429.86883148132466Q1595.8972130994712 427.8159860377581 1591.791522212338 427.8159860377581ZM1725.6939556996304 439.09647337616843L1725.6939556996304 439.09647337616843Q1725.6939556996304 449.90948105911315 1718.3768828314728 456.4338710332207Q1711.0598099633148 462.93793580491683 1700.6736315310122 462.93793580491683L1700.6736315310122 462.93793580491683Q1698.336233253684 462.93793580491683 1695.9175341667092 462.7143585783898Q1693.4988350797348 462.51110655427425 1691.019160385526 463.97452112790586Q1688.519160488905 465.4379357015375 1688.519160488905 467.4704559426925L1688.519160488905 467.4704559426925Q1688.519160488905 470.9867159598907 1694.535420402724 472.7550085696956L1694.535420402724 472.7550085696956Q1698.0313552175107 473.6289922733922 1708.7224116859861 474.6452523939697Q1719.4134681544615 475.6818377169588 1723.4988338391831 477.42980512435213L1723.4988338391831 477.42980512435213Q1732.4215976978535 481.230617975312 1732.4215976978535 492.6533817306032Q1732.4215976978535 504.0558202834829 1722.258996492079 512.5517548915109Q1712.0963952863035 521.0476894995388 1697.4622495499875 521.0476894995388L1697.4622495499875 521.0476894995388Q1686.628916664631 521.0476894995388 1678.4378600927766 516.1289905159437Q1670.22647831851 511.23061673476013 1670.22647831851 501.1289911362196L1670.22647831851 501.1289911362196Q1670.22647831851 496.4541945815631 1672.3606245717228 494.3403735307619Q1674.474445622524 492.20622727754915 1676.8931447094983 490.31598345327495Q1679.311843796473 488.40541442658923 1682.5232257774978 486.068016149261Q1685.7549329609346 483.7306178719327 1686.3240386284579 483.28346341887857L1686.3240386284579 483.28346341887857Q1682.6655021943789 481.82004884524696 1679.7386730471158 478.66964247145665Q1676.8118438998522 475.5192360976664 1676.8118438998522 473.03956140345724Q1676.8118438998522 470.55988670924813 1677.9907056397224 469.38102496937825L1677.9907056397224 469.38102496937825Q1680.9175347869855 466.454195822115 1688.8240385250783 461.04769198064264L1688.8240385250783 461.04769198064264Q1682.970380230552 458.40541566714114 1679.0069657602999 453.2834646594305Q1675.0638764924593 448.1615136517198 1675.0638764924593 441.2915952366159L1675.0638764924593 441.2915952366159Q1675.0638764924593 430.88509160190216 1682.3809493606173 424.01517318679817Q1689.6980222287752 417.1452547716942 1700.0842006610774 417.1452547716942L1700.0842006610774 417.1452547716942Q1705.795582538723 417.1452547716942 1710.6329807126717 418.60866934532584L1710.6329807126717 418.60866934532584Q1717.0557446747216 419.90948229966506 1723.4988338391831 419.90948229966506Q1729.9419230036447 419.90948229966506 1735.5110284644093 419.62492946590334L1735.5110284644093 419.62492946590334Q1735.5110284644093 421.08834403953495 1734.9215975944744 424.3810268302061Q1734.3321667245395 427.6737096208772 1733.315906603962 428.99484777762797L1733.315906603962 428.99484777762797L1722.1776956824324 426.94200233406144Q1725.6939556996304 432.34850617553377 1725.6939556996304 439.09647337616843ZM1701.181761591301 513.7306166313808Q1709.454118972802 513.7306166313808 1714.7183463973934 509.2590721008397Q1719.9825738219852 504.7875275702987 1719.9825738219852 498.0598855720756Q1719.9825738219852 491.33224357385245 1713.986639110578 488.1818372000622Q1707.9907043991702 485.0314308262719 1695.2671276895398 485.0314308262719L1695.2671276895398 485.0314308262719Q1691.893144089223 485.0314308262719 1689.5557458118942 486.4948453999035Q1687.218347534566 487.9582599735351 1686.0394857946962 488.85256887964334Q1684.860624054826 489.72655258334 1683.3972094811947 492.20622727754915Q1681.933794907563 494.7062271741698 1681.933794907563 497.9176091551947L1681.933794907563 497.9176091551947Q1681.933794907563 504.6452511534178 1687.4215995586815 509.17777129119355Q1692.9094042098 513.7306166313808 1701.181761591301 513.7306166313808ZM1701.5476152347087 456.4948466404554L1701.5476152347087 456.4948466404554Q1714.5760699805123 456.4948466404554 1714.5760699805123 441.5761480703776L1714.5760699805123 441.5761480703776Q1714.5760699805123 433.242815081642 1710.6939563199066 428.2631404908122Q1706.8118426593005 423.2834658999824 1700.0842006610774 423.2834658999824Q1693.3565586628542 423.2834658999824 1689.7793230384214 427.08427875094225Q1686.1817622115768 430.88509160190216 1686.1817622115768 438.6493189231144Q1686.1817622115768 446.41354624432654 1690.5720059324717 451.454196442391Q1694.9622496533666 456.4948466404554 1701.5476152347087 456.4948466404554ZM1768.4378563711207 475.37695968078555L1768.4378563711207 475.37695968078555Q1775.8972056561597 475.37695968078555 1779.5557420902387 470.39728508995574L1779.5557420902387 470.39728508995574L1779.5557420902387 454.01517194624626Q1766.974441797489 456.2102938066937 1762.726474493475 458.9135457274299Q1758.4785071894612 461.6167976481661 1758.4785071894612 466.59647223899583L1758.4785071894612 466.59647223899583Q1758.7630600232228 471.1289923767715 1761.5476127536049 473.2631386299843Q1764.3321654839874 475.37695968078555 1768.4378563711207 475.37695968078555ZM1798.1329770943953 474.5029759770889L1798.1329770943953 474.5029759770889L1801.20208265854 474.5029759770889Q1801.9337899453553 474.5029759770889 1802.2386679815286 474.36069956020805L1802.2386679815286 474.36069956020805Q1802.8280988514634 478.1615124111679 1803.254928102106 479.0354961148646L1803.254928102106 479.0354961148646Q1801.5069606947127 479.90947981856124 1795.2874487567783 481.7387480356008Q1789.0679368188444 483.5680162526403 1786.1411076715808 483.5680162526403Q1783.2142785243177 483.5680162526403 1782.0354167844475 481.45419520183907Q1780.8768802469895 479.34037415103785 1780.2874493770541 473.91354510715394L1780.2874493770541 473.91354510715394Q1777.7874494804337 477.42980512435213 1772.88907569925 480.35663427161535Q1767.9907019180669 483.28346341887857 1763.0110273272367 483.5680162526403L1763.0110273272367 483.5680162526403L1762.2793200404208 483.5680162526403Q1755.267125208436 483.5680162526403 1750.2061498079602 479.6249269847996Q1745.1654996098955 475.6818377169588 1745.1654996098955 468.2021632295083Q1745.1654996098955 460.7428139444694 1752.1167188346458 456.71842386698245Q1759.067938059396 452.6940337894955 1779.5557420902387 448.89322093853565L1779.5557420902387 448.89322093853565L1779.5557420902387 440.11273349674593Q1779.5557420902387 424.2997260205599 1767.7061490843048 424.2997260205599L1767.7061490843048 424.2997260205599Q1763.600458197172 424.2997260205599 1759.9419217630925 426.35257146412647L1759.9419217630925 426.35257146412647L1759.9419217630925 436.3119206457861Q1759.9419217630925 437.04362793260185 1756.0598081024864 437.7753352194177Q1752.1776944418807 438.50704250623346 1750.937857094776 438.50704250623346Q1749.6980197476714 438.50704250623346 1748.5191580078013 438.2021644700602L1748.5191580078013 438.2021644700602Q1747.3606214703432 437.04362793260185 1747.3606214703432 432.93793704546874Q1747.3606214703432 428.85257136074716 1749.6980197476714 426.2102950472456L1749.6980197476714 426.2102950472456Q1751.8931416081186 423.2834658999824 1760.2264745968541 420.2143603358383Q1768.5801327880013 417.1452547716942 1773.2549293426582 417.1452547716942L1773.2549293426582 417.1452547716942Q1791.6898879299342 417.1452547716942 1791.6898879299342 437.91761163629855L1791.6898879299342 437.91761163629855L1791.6898879299342 467.1859031089308Q1791.6898879299342 471.86069966358735 1793.5191561469737 473.1818378203381Q1795.3484243640132 474.5029759770889 1798.1329770943953 474.5029759770889Z " fill="#e5ece9" transform="matrix(0.4860809365256192,0,0,0.4860809365256192,-1.5279191993784942,83.18471001758338)"/></g></svg>